<?xml version="1.0" standalone="no"?>
<!DOCTYPE svg PUBLIC "-//W3C//DTD SVG 20010904//EN"
 "http://www.w3.org/TR/2001/REC-SVG-20010904/DTD/svg10.dtd">
<svg version="1.0" xmlns="http://www.w3.org/2000/svg"
 width="1280.000000pt" height="1103.000000pt" viewBox="0 0 1280.000000 1103.000000"
 preserveAspectRatio="xMidYMid meet">
<g transform="translate(0.000000,1103.000000) scale(0.100000,-0.100000)"
fill="#000000" stroke="none">
<path d="M6250 11019 c-181 -54 -267 -99 -365 -191 -183 -171 -255 -390 -211
-638 31 -171 117 -332 214 -399 100 -69 94 -57 91 -194 -1 -67 2 -251 6 -408
6 -207 5 -288 -3 -293 -24 -15 -241 69 -363 140 -174 101 -273 208 -318 342
-23 67 -27 143 -22 417 3 202 -4 246 -64 373 -54 114 -122 209 -220 307 -89
90 -240 209 -345 273 -54 33 -56 34 -145 28 -164 -10 -309 -64 -573 -213 -153
-86 -539 -276 -707 -348 -493 -210 -1018 -359 -1519 -429 -322 -46 -503 -56
-993 -56 -463 0 -531 -6 -630 -52 -43 -20 -83 -64 -83 -90 1 -20 89 -121 150
-171 30 -24 82 -60 115 -79 82 -47 418 -202 518 -239 85 -31 259 -79 287 -79
35 0 39 -20 14 -74 -40 -86 -28 -143 46 -210 102 -92 292 -148 670 -199 l95
-13 -2 -39 c-4 -60 13 -99 63 -145 83 -77 266 -142 442 -159 106 -10 257 0
361 24 72 17 91 10 91 -34 1 -72 77 -167 166 -208 114 -52 304 -68 461 -38 43
8 81 15 86 15 4 0 7 -18 7 -40 0 -114 170 -177 545 -201 99 -7 184 -15 189
-20 4 -4 -24 -38 -63 -75 -182 -171 -264 -342 -263 -544 1 -156 52 -276 170
-402 141 -149 434 -300 734 -377 62 -16 114 -34 116 -40 2 -6 -11 -23 -30 -38
-183 -147 -296 -354 -314 -576 -6 -66 -3 -84 26 -173 61 -184 124 -287 258
-420 132 -132 379 -289 545 -347 28 -10 20 -22 -52 -76 -93 -69 -144 -129
-191 -226 -147 -306 -66 -665 197 -861 37 -28 154 -104 258 -169 105 -65 209
-129 232 -144 24 -14 43 -30 43 -34 0 -4 -28 -41 -63 -81 -64 -75 -173 -260
-204 -345 -12 -33 -18 -90 -21 -207 -7 -273 20 -333 246 -536 34 -32 62 -62
62 -68 0 -6 -20 -36 -45 -67 -95 -116 -161 -266 -172 -387 -10 -122 44 -251
165 -393 54 -63 55 -67 43 -97 -56 -139 -63 -170 -59 -256 3 -72 9 -94 37
-146 48 -90 86 -131 155 -166 33 -17 64 -36 68 -42 4 -6 8 -83 8 -172 0 -181
2 -186 75 -198 109 -18 182 -18 209 -1 24 16 26 23 26 85 0 91 4 100 49 100
52 0 117 37 154 88 24 33 32 55 35 100 6 78 -13 160 -48 216 -17 26 -30 52
-30 59 0 7 17 37 37 67 32 47 38 65 41 123 7 109 -10 151 -90 230 -38 37 -74
67 -79 67 -5 0 -9 6 -9 13 0 7 33 28 73 45 132 59 289 197 337 298 13 27 25
72 27 99 2 28 11 74 20 104 24 83 14 150 -41 258 -25 51 -59 107 -76 126 -35
40 -37 59 -11 95 36 52 91 172 113 249 33 115 33 327 0 433 -29 91 -82 195
-128 248 -19 22 -34 46 -34 54 0 8 74 54 168 103 304 163 405 243 511 404 64
98 131 274 131 347 0 64 -40 196 -90 299 -56 116 -136 216 -230 288 -36 27
-66 55 -68 61 -1 7 47 33 108 60 193 84 362 197 501 336 114 114 191 238 241
386 33 98 33 260 0 359 -50 151 -123 283 -205 372 -21 23 -36 46 -33 52 3 5
30 15 58 21 238 57 515 193 672 330 173 151 223 261 213 465 -6 120 -25 193
-77 303 -48 102 -88 160 -159 235 -33 34 -51 61 -45 66 5 5 92 14 194 21 212
13 282 27 384 74 85 39 106 64 106 124 0 50 -7 49 105 17 92 -26 220 -31 287
-11 74 21 223 97 272 137 42 35 75 98 76 141 0 15 4 30 10 33 5 3 49 -2 97
-11 116 -22 369 -23 469 -1 153 34 293 102 343 166 21 28 26 46 27 95 l1 61
169 17 c199 20 369 57 456 101 80 39 170 128 186 183 16 55 15 86 -4 134 -10
24 -13 45 -8 50 5 5 37 16 72 25 210 53 485 151 620 219 95 48 245 148 304
204 57 53 98 112 98 141 0 30 -64 78 -137 103 -67 23 -74 23 -446 20 -349 -3
-474 2 -757 28 -677 61 -1015 127 -1406 275 -362 137 -923 395 -1354 623 -162
85 -273 122 -388 129 -90 6 -94 5 -157 -27 -72 -37 -137 -88 -309 -245 -179
-163 -236 -250 -306 -465 -51 -155 -56 -200 -35 -365 23 -185 18 -256 -28
-348 -65 -130 -187 -244 -353 -326 -123 -61 -338 -127 -362 -112 -11 7 0 617
14 787 5 72 6 72 56 113 108 87 182 195 225 326 22 68 26 99 27 205 1 148 -10
202 -69 325 -113 237 -359 389 -650 401 -44 1 -96 -2 -115 -7z m-251 -3349
c19 -10 20 -37 38 -809 l6 -304 -98 7 c-101 7 -242 26 -515 70 -85 14 -231 35
-325 46 -93 11 -188 25 -210 31 -141 38 -301 170 -345 284 -27 73 -37 188 -20
239 25 76 104 138 210 164 25 6 56 14 70 17 14 4 183 10 375 14 383 9 442 17
565 79 74 37 103 81 94 141 l-7 44 73 -7 c39 -3 80 -11 89 -16z m961 -60 c0
-43 5 -55 36 -90 77 -85 243 -112 682 -109 318 1 353 -4 465 -64 103 -54 142
-129 135 -256 -4 -62 -11 -88 -38 -140 -62 -116 -213 -224 -380 -270 -40 -11
-137 -28 -214 -37 -78 -8 -215 -25 -306 -35 -385 -47 -499 -59 -575 -61 l-80
-3 1 115 c0 63 6 304 13 535 9 310 16 423 25 433 13 13 106 29 189 31 l47 1 0
-50z m-131 -1510 c146 -25 374 -83 460 -117 130 -51 212 -109 249 -177 13 -23
17 -56 17 -127 0 -90 -2 -99 -38 -172 -81 -164 -319 -350 -559 -438 -108 -40
-298 -90 -311 -82 -15 9 11 1097 26 1121 11 16 19 15 156 -8z m-775 -92 c3
-40 8 -246 11 -458 3 -212 8 -406 12 -432 4 -38 2 -49 -10 -54 -19 -7 -819
486 -842 519 -36 52 -5 163 66 241 102 112 280 189 544 235 61 11 133 20 162
20 l51 1 6 -72z m40 -1660 c11 -95 16 -687 6 -693 -12 -8 -83 47 -148 115
-113 116 -192 251 -192 325 1 91 71 175 210 249 108 58 117 58 124 4z m751
-124 c102 -64 189 -123 192 -132 9 -23 -12 -54 -187 -271 -167 -208 -199 -241
-233 -241 -20 0 -20 4 -13 240 4 132 12 254 17 272 5 18 9 81 9 140 0 86 3
108 14 108 8 0 98 -52 201 -116z"/>
</g>
</svg>
